<?xml version="1.0" encoding="UTF-8"?>
<svg width="360px" height="21px" viewBox="0 0 360 21" version="1.1" xmlns="http://www.w3.org/2000/svg" xmlns:xlink="http://www.w3.org/1999/xlink">
    <!-- Generator: Sketch 48.2 (47327) - http://www.bohemiancoding.com/sketch -->
    <title>360x20-logo</title>
    <desc>Created with Sketch.</desc>
    <defs>
        <linearGradient x1="99.0820067%" y1="50%" x2="2.35422878%" y2="50%" id="linearGradient-1">
            <stop stop-color="#313E50" offset="0%"></stop>
            <stop stop-color="#704C5E" offset="100%"></stop>
        </linearGradient>
    </defs>
    <g id="Artboard-4" stroke="none" stroke-width="1" fill="none" fill-rule="evenodd" transform="translate(-11.000000, -353.000000)">
        <path d="M27.2840702,356.090825 C27.2840702,355.632923 27.1218989,355.237034 26.7975514,354.903147 C26.4732039,354.56926 26.0916243,354.392779 25.6528013,354.3737 L20.2152383,354.3737 L20.2152383,371.516333 C20.2343176,372.012394 20.4203376,372.432131 20.773304,372.775558 C21.1262704,373.118985 21.5507776,373.290696 22.0468385,373.290696 L22.4188822,373.290696 L22.4188822,373.576883 L16.1513755,373.576883 L16.1513755,373.290696 L16.5234192,373.290696 C17.0194801,373.290696 17.4439873,373.118985 17.7969537,372.775558 C18.1499201,372.432131 18.3359401,372.021933 18.3550194,371.544952 L18.3550194,354.3737 L12.9174564,354.3737 C12.4595541,354.392779 12.0732048,354.56926 11.7583969,354.903147 C11.4435891,355.237034 11.2861875,355.632923 11.2861875,356.090825 L11.2861875,356.577344 L11,356.605963 L11,353 C11.286189,353.114476 11.7822424,353.228949 12.4881751,353.343425 C13.1941079,353.457901 13.8427931,353.515138 14.4342503,353.515138 L24.1073886,353.515138 C25.0422726,353.515138 25.8197409,353.443591 26.439817,353.300497 C27.059893,353.157402 27.4367029,353.057238 27.5702577,353 L27.5702577,356.605963 L27.2840702,356.577344 L27.2840702,356.090825 Z M42.7856531,373.290696 C43.2244761,373.290696 43.6060557,373.142833 43.9304032,372.847105 C44.2547507,372.551376 44.4264615,372.193645 44.4455407,371.773902 L44.4455407,365.535014 L33.8852211,365.535014 L33.8852211,371.773902 C33.9043003,372.193645 34.0760111,372.551376 34.4003586,372.847105 C34.7247061,373.142833 35.1062856,373.290696 35.5451087,373.290696 L35.8885337,373.290696 L35.8885337,373.576883 L30.0503082,373.576883 L30.0503082,373.290696 L30.3937332,373.290696 C30.8516356,373.290696 31.2379849,373.138064 31.5527927,372.832795 C31.8676006,372.527527 32.0345416,372.165027 32.0536209,371.745283 L32.0536209,358.237232 C32.0345416,357.817488 31.8628308,357.454987 31.5384833,357.149719 C31.2141359,356.844451 30.8325563,356.691819 30.3937332,356.691819 L30.0503082,356.691819 L30.0503082,356.405632 L35.8885337,356.405632 L35.8885337,356.691819 L35.5451087,356.691819 C35.1062856,356.691819 34.7247061,356.839681 34.4003586,357.13541 C34.0760111,357.431138 33.9043003,357.788869 33.8852211,358.208613 L33.8852211,364.676451 L44.4455407,364.676451 L44.4455407,358.237232 C44.4455407,357.817488 44.3215274,357.493145 44.0734969,357.264194 C43.6728324,356.882609 43.2435554,356.691819 42.7856531,356.691819 L42.4422281,356.691819 L42.4422281,356.405632 L48.2804536,356.405632 L48.2804536,356.691819 L47.9370285,356.691819 C47.4982055,356.691819 47.1166259,356.834911 46.7922784,357.1211 C46.4679309,357.407289 46.2962202,357.76025 46.2771409,358.179994 L46.2771409,371.773902 C46.2962202,372.193645 46.4202335,372.508449 46.6491847,372.71832 C47.0689285,373.099906 47.4982055,373.290696 47.9370285,373.290696 L48.2804536,373.290696 L48.2804536,373.576883 L42.4422281,373.576883 L42.4422281,373.290696 L42.7856531,373.290696 Z M52.162823,373.290696 C52.6207253,373.290696 53.0070746,373.142833 53.3218824,372.847105 C53.6366903,372.551376 53.8036313,372.193645 53.8227106,371.773902 L53.8227106,358.179994 C53.8227106,357.76025 53.6605393,357.407289 53.3361918,357.1211 C53.0118443,356.834911 52.6207253,356.691819 52.162823,356.691819 L51.7621604,356.691819 L51.7621604,356.405632 L60.1188361,356.405632 C60.901086,356.405632 61.5879292,356.348395 62.1793863,356.233919 C62.7708435,356.119443 63.1524231,356.024049 63.3241364,355.947732 L63.3241364,359.210269 L63.0093302,359.181651 L63.0093302,358.752369 C63.0093302,358.351705 62.8757773,358.008283 62.6086676,357.722094 C62.3415579,357.435905 61.9981363,357.292813 61.5783925,357.292813 L55.625692,357.292813 L55.625692,364.561976 L60.5194987,364.561976 C60.901084,364.561976 61.1920384,364.447502 61.3923706,364.218551 C61.5927029,363.9896 61.6928675,363.703415 61.6928675,363.359988 L61.6928675,362.987945 L62.0076738,362.987945 L62.0076738,366.99457 L61.6928675,366.99457 L61.6928675,366.622526 C61.6928675,366.088307 61.4925383,365.725806 61.0918737,365.535014 C60.9392396,365.477776 60.7770683,365.439618 60.6053549,365.420539 L55.625692,365.420539 L55.625692,372.689702 L60.1188361,372.689702 C60.9964823,372.689702 61.7357927,372.53707 62.3367895,372.231802 C62.9377863,371.926533 63.3956817,371.564033 63.7104896,371.144289 C64.0252974,370.724545 64.3448703,370.171255 64.6692178,369.484401 L64.9554053,369.484401 L63.3813739,373.576883 L51.7621604,373.576883 L51.7621604,373.290696 L52.162823,373.290696 Z M78.5297509,356.033588 C80.4376772,354.106582 82.9179443,353.143094 85.9706265,353.143094 C89.0233087,353.143094 91.5035758,354.101812 93.4115022,356.019278 C95.3194285,357.936744 96.2733774,360.4504 96.2733774,363.56032 C96.2733774,366.67024 95.3194285,369.183895 93.4115022,371.101361 C91.5035758,373.018827 89.0233087,373.977546 85.9706265,373.977546 C82.9179443,373.977546 80.442447,373.018827 78.5440602,371.101361 C76.6456735,369.183895 75.6964944,366.67024 75.6964944,363.56032 C75.6964944,360.4504 76.6409037,357.941514 78.5297509,356.033588 Z M80.1037822,370.486058 C81.5919648,372.24135 83.5523298,373.118983 85.9849359,373.118983 C88.417542,373.118983 90.3731372,372.24135 91.8517801,370.486058 C93.3304231,368.730766 94.0697335,366.422209 94.0697335,363.56032 C94.0697335,361.671473 93.7358514,360.002062 93.0680771,358.552038 C92.4003029,357.102014 91.4511238,355.981124 90.2205113,355.189335 C88.9898987,354.397545 87.5732847,354.001656 85.9706265,354.001656 C83.54756,354.001656 81.5967346,354.879289 80.1180916,356.634582 C78.6394487,358.389874 77.9001383,360.69843 77.9001383,363.56032 C77.9001383,366.422209 78.6346789,368.730766 80.1037822,370.486058 Z M99.440278,373.290696 C99.8981803,373.290696 100.28453,373.142833 100.599337,372.847105 C100.914145,372.551376 101.081086,372.193645 101.100166,371.773902 L101.100166,358.237232 C101.081086,357.817488 100.904606,357.454987 100.570719,357.149719 C100.236832,356.844451 99.8409428,356.691819 99.3830405,356.691819 L99.0396155,356.691819 L99.0396155,356.405632 L104.963697,356.405632 L104.963697,356.691819 L104.620272,356.691819 C104.16237,356.691819 103.766481,356.844451 103.432594,357.149719 C103.098707,357.454987 102.931766,357.817488 102.931766,358.237232 L102.931766,372.689702 L107.396291,372.689702 C108.273937,372.689702 109.018017,372.53707 109.628554,372.231802 C110.23909,371.926533 110.701756,371.564033 111.016563,371.144289 C111.331371,370.724545 111.641405,370.171255 111.946673,369.484401 L112.23286,369.484401 L110.658829,373.576883 L99.0396155,373.576883 L99.0396155,373.290696 L99.440278,373.290696 Z M114.455342,373.290696 C114.970482,373.290696 115.418838,373.138064 115.800423,372.832795 C116.182009,372.527527 116.372799,372.165027 116.372799,371.745283 L116.372799,358.237232 C116.372799,357.817488 116.182009,357.454987 115.800423,357.149719 C115.418838,356.844451 114.960943,356.691819 114.426723,356.691819 L114.05468,356.691819 L114.05468,356.405632 L120.522518,356.405632 L120.522518,356.691819 L120.150474,356.691819 C119.635334,356.691819 119.191748,356.834911 118.819702,357.1211 C118.447656,357.407289 118.242557,357.76025 118.204399,358.179994 L118.204399,371.773902 C118.223478,372.193645 118.423807,372.551376 118.805392,372.847105 C119.186978,373.142833 119.635334,373.290696 120.150474,373.290696 L120.522518,373.290696 L120.551136,373.576883 L114.05468,373.576883 L114.05468,373.290696 L114.455342,373.290696 Z M141.604757,356.691819 L141.375807,356.691819 C140.956063,356.691819 140.545865,356.830142 140.145201,357.106791 C139.744536,357.38344 139.401115,357.798408 139.114926,358.351707 C134.955646,367.280802 132.790182,371.955152 132.618469,372.374895 C132.294122,373.176225 132.122411,373.710436 132.103331,373.977546 L131.845763,373.977546 L124.776931,358.380325 C124.223632,357.254649 123.489092,356.691819 122.573287,356.691819 L122.344337,356.691819 L122.344337,356.405632 L128.211181,356.405632 L128.211181,356.691819 L127.982231,356.691819 C127.619725,356.691819 127.34785,356.820602 127.166597,357.078172 C126.985344,357.335742 126.894718,357.56946 126.894718,357.779332 C126.894718,357.989204 126.923337,358.208612 126.980575,358.437563 L132.103331,370.915339 L137.369182,358.4948 C137.464578,358.24677 137.512276,358.013053 137.512276,357.793641 C137.512276,357.57423 137.416881,357.335742 137.226088,357.078172 C137.035296,356.820602 136.749111,356.691819 136.367526,356.691819 L136.167194,356.691819 L136.167194,356.405632 L141.604757,356.405632 L141.604757,356.691819 Z M143.770002,373.290696 C144.227904,373.290696 144.614253,373.142833 144.929061,372.847105 C145.243869,372.551376 145.41081,372.193645 145.429889,371.773902 L145.429889,358.179994 C145.429889,357.76025 145.267718,357.407289 144.94337,357.1211 C144.619023,356.834911 144.227904,356.691819 143.770002,356.691819 L143.369339,356.691819 L143.369339,356.405632 L151.726015,356.405632 C152.508265,356.405632 153.195108,356.348395 153.786565,356.233919 C154.378022,356.119443 154.759602,356.024049 154.931315,355.947732 L154.931315,359.210269 L154.616509,359.181651 L154.616509,358.752369 C154.616509,358.351705 154.482956,358.008283 154.215846,357.722094 C153.948736,357.435905 153.605315,357.292813 153.185571,357.292813 L147.232871,357.292813 L147.232871,364.561976 L152.126677,364.561976 C152.508263,364.561976 152.799217,364.447502 152.999549,364.218551 C153.199881,363.9896 153.300046,363.703415 153.300046,363.359988 L153.300046,362.987945 L153.614852,362.987945 L153.614852,366.99457 L153.300046,366.99457 L153.300046,366.622526 C153.300046,366.088307 153.099717,365.725806 152.699052,365.535014 C152.546418,365.477776 152.384247,365.439618 152.212534,365.420539 L147.232871,365.420539 L147.232871,372.689702 L151.726015,372.689702 C152.603661,372.689702 153.342971,372.53707 153.943968,372.231802 C154.544965,371.926533 155.00286,371.564033 155.317668,371.144289 C155.632476,370.724545 155.952049,370.171255 156.276396,369.484401 L156.562584,369.484401 L154.988552,373.576883 L143.369339,373.576883 L143.369339,373.290696 L143.770002,373.290696 Z M174.000461,373.576883 L167.017485,373.576883 L167.046104,373.290696 L167.389529,373.290696 C167.88559,373.290696 168.310097,373.118985 168.663064,372.775558 C169.01603,372.432131 169.20205,372.012394 169.221129,371.516333 L169.221129,355.604306 C169.221129,355.108246 169.039879,354.688508 168.677373,354.345081 C168.314867,354.001655 167.88559,353.829944 167.389529,353.829944 L167.046104,353.829944 L167.017485,353.543756 L172.712617,353.543756 C174.677781,353.543756 176.2041,353.977803 177.291618,354.84591 C178.379136,355.714016 178.922886,356.873064 178.922886,358.323088 C178.922886,359.467844 178.617623,360.417023 178.007086,361.170654 C177.39655,361.924285 176.65247,362.425108 175.774824,362.673138 C177.282086,362.90209 178.474522,363.522156 179.352168,364.533357 C180.229814,365.544558 180.66863,366.81808 180.66863,368.353961 C180.66863,369.889841 180.081952,371.144284 178.908577,372.117327 C177.735202,373.090369 176.09918,373.576883 174.000461,373.576883 Z M171.081348,372.546608 L173.943224,372.546608 C175.393248,372.546608 176.518907,372.150719 177.320236,371.35893 C178.121565,370.56714 178.522224,369.44625 178.522224,367.996226 C178.522224,367.175818 178.383901,366.455587 178.107252,365.83551 C177.830603,365.215434 177.482411,364.724151 177.062668,364.361645 C175.95607,363.44584 174.296199,362.987945 172.083005,362.987945 L172.054386,362.987945 L172.054386,362.730376 L172.326264,362.730376 C172.488438,362.730376 172.722155,362.711297 173.027423,362.673138 C173.332692,362.63498 173.676113,362.568203 174.057699,362.472807 C174.439284,362.377411 174.782705,362.224779 175.087974,362.014907 C175.393242,361.805035 175.679426,361.557008 175.946536,361.270819 C176.499835,360.641204 176.77648,359.701564 176.77648,358.451872 C176.77648,357.202181 176.418749,356.224383 175.703277,355.51845 C174.987804,354.812517 173.95277,354.459556 172.598142,354.459556 L171.081348,354.459556 L171.081348,372.546608 Z M189.072763,357.292813 L187.555969,357.292813 L187.555969,371.745283 C187.575048,372.33674 187.842154,372.785096 188.357294,373.090364 C188.605324,373.223919 188.881969,373.290696 189.187238,373.290696 L189.559281,373.290696 L189.5879,373.576883 L183.721056,373.576883 L183.721056,373.290696 L184.121718,373.290696 C184.560542,373.290696 184.937351,373.142833 185.252159,372.847105 C185.566967,372.551376 185.724369,372.193645 185.724369,371.773902 L185.724369,358.179994 C185.724369,357.76025 185.566967,357.407289 185.252159,357.1211 C184.937351,356.834911 184.560542,356.691819 184.121718,356.691819 L183.721056,356.691819 L183.721056,356.405632 L190.904363,356.405632 C192.697814,356.405632 194.114428,356.81583 195.154248,357.636238 C196.194067,358.456646 196.71397,359.534608 196.71397,360.870157 C196.71397,362.205705 196.294232,363.321826 195.454744,364.218551 C194.615257,365.115276 193.546834,365.630409 192.249444,365.763964 C192.859981,366.031073 193.594521,366.775153 194.453088,367.996226 C194.434009,367.996226 194.763121,368.415964 195.440435,369.255451 C196.117749,370.094939 196.6615,370.748394 197.071704,371.215836 C197.481908,371.683278 197.82056,372.041009 198.08767,372.289039 C198.793602,372.956813 199.604459,373.290696 200.520264,373.290696 L200.520264,373.576883 L199.633082,373.576883 C198.12582,373.576883 196.942924,373.281159 196.084357,372.689702 C195.435662,372.250879 194.844214,371.707128 194.309994,371.058433 C194.195519,370.905799 193.713775,370.233265 192.864747,369.040811 C192.01572,367.848357 191.562594,367.213981 191.505357,367.137664 C190.475076,365.859353 189.511588,365.220207 188.614863,365.220207 L188.614863,364.93402 C190.847136,364.93402 192.192204,364.819546 192.650107,364.590595 C193.279722,364.266247 193.708999,363.922826 193.937951,363.56032 C194.414932,362.797149 194.653419,361.957674 194.653419,361.041869 C194.653419,359.878034 194.309998,358.981322 193.623144,358.351707 C192.936291,357.722091 192.01096,357.378669 190.847125,357.321432 C190.331985,357.302352 189.740537,357.292813 189.072763,357.292813 Z M219.341622,373.290696 L219.570572,373.290696 L219.570572,373.576883 L213.703728,373.576883 L213.703728,373.290696 L213.932678,373.290696 C214.295184,373.290696 214.571829,373.166682 214.762621,372.918652 C214.953414,372.670621 215.048809,372.436904 215.048809,372.217492 C215.048809,371.998081 215.010651,371.783442 214.934334,371.57357 L213.360303,367.767276 L206.119758,367.767276 L204.545727,371.487714 C204.45033,371.735745 204.402633,371.969462 204.402633,372.188874 C204.402633,372.408285 204.498028,372.646772 204.688821,372.904342 C204.879613,373.161912 205.165798,373.290696 205.547383,373.290696 L205.776333,373.290696 L205.776333,373.576883 L200.310151,373.576883 L200.310151,373.290696 L200.539101,373.290696 C200.939766,373.290696 201.345194,373.152373 201.755398,372.875724 C202.165603,372.599074 202.504254,372.184107 202.771364,371.630808 C206.949723,362.701712 209.124726,358.027363 209.29644,357.607619 C209.620787,356.80629 209.792498,356.272079 209.811577,356.004969 L210.069146,356.004969 L217.137978,371.630808 C217.691277,372.737405 218.425817,373.290696 219.341622,373.290696 Z M206.491802,366.908714 L213.016878,366.908714 L209.811577,359.067176 L206.491802,366.908714 Z M240.595574,356.691819 C240.17583,356.691819 239.81333,356.830142 239.508061,357.106791 C239.202793,357.38344 239.040622,357.722092 239.021543,358.122757 L239.021543,370.314345 C239.021543,371.420943 239.088319,372.470286 239.221874,373.462408 L239.279111,373.977546 L239.021543,373.977546 L224.139791,359.868501 L224.139791,371.80252 C224.139791,372.222264 224.292423,372.575225 224.597691,372.861414 C224.90296,373.147603 225.275,373.290696 225.713823,373.290696 L226.200341,373.290696 L226.200341,373.576883 L220.791397,373.576883 L220.791397,373.290696 L221.277916,373.290696 C221.716739,373.290696 222.088779,373.147603 222.394047,372.861414 C222.699316,372.575225 222.851947,372.222264 222.851947,371.80252 L222.851947,359.553694 C222.851947,358.389859 222.785171,357.350055 222.651616,356.43425 L222.594379,355.97635 L222.909185,356.004969 L237.762317,369.999539 L237.762317,358.122757 C237.724159,357.722092 237.552448,357.38344 237.24718,357.106791 C236.941912,356.830142 236.579411,356.691819 236.159667,356.691819 L235.673149,356.691819 L235.673149,356.405632 L241.082093,356.405632 L241.082093,356.691819 L240.595574,356.691819 Z M253.178044,373.977546 C250.258917,373.958466 247.95513,373.14761 246.266615,371.544952 C244.578101,369.942293 243.733856,367.752981 243.733856,364.976948 C243.733856,362.200915 244.578101,360.011602 246.266615,358.408944 C247.95513,356.806286 250.258917,356.004969 253.178044,356.004969 C254.360958,356.004969 255.553395,356.157601 256.755388,356.462869 C257.957382,356.768137 258.997186,357.187875 259.874832,357.722094 L260.504445,361.785957 L260.246876,361.785957 C259.426468,358.504324 257.060674,356.863532 253.149425,356.863532 C250.878993,356.863532 249.085569,357.588533 247.7691,359.038557 C246.452631,360.488581 245.794406,362.472794 245.794406,364.991257 C245.794406,366.632074 246.09013,368.058228 246.681587,369.269761 C247.273044,370.481294 248.131598,371.420934 249.257275,372.088708 C250.382952,372.756482 251.689862,373.090364 253.178044,373.090364 C254.666227,373.090364 255.968367,372.866186 257.084504,372.417824 C258.200641,371.969461 259.125971,371.23015 259.860523,370.19987 C260.595075,369.16959 261.010042,367.891299 261.105439,366.364957 L261.363007,366.364957 L261.048201,370.285727 C260.30411,371.430482 259.226148,372.331964 257.814282,372.990199 C256.402417,373.648433 254.857019,373.977546 253.178044,373.977546 Z M277.150778,373.290696 C277.589601,373.290696 277.97118,373.142833 278.295528,372.847105 C278.619875,372.551376 278.791586,372.193645 278.810665,371.773902 L278.810665,365.535014 L268.250346,365.535014 L268.250346,371.773902 C268.269425,372.193645 268.441136,372.551376 268.765483,372.847105 C269.089831,373.142833 269.47141,373.290696 269.910233,373.290696 L270.253658,373.290696 L270.253658,373.576883 L264.415433,373.576883 L264.415433,373.290696 L264.758858,373.290696 C265.21676,373.290696 265.60311,373.138064 265.917917,372.832795 C266.232725,372.527527 266.399666,372.165027 266.418746,371.745283 L266.418746,358.237232 C266.399666,357.817488 266.227956,357.454987 265.903608,357.149719 C265.579261,356.844451 265.197681,356.691819 264.758858,356.691819 L264.415433,356.691819 L264.415433,356.405632 L270.253658,356.405632 L270.253658,356.691819 L269.910233,356.691819 C269.47141,356.691819 269.089831,356.839681 268.765483,357.13541 C268.441136,357.431138 268.269425,357.788869 268.250346,358.208613 L268.250346,364.676451 L278.810665,364.676451 L278.810665,358.237232 C278.810665,357.817488 278.686652,357.493145 278.438622,357.264194 C278.037957,356.882609 277.60868,356.691819 277.150778,356.691819 L276.807353,356.691819 L276.807353,356.405632 L282.645578,356.405632 L282.645578,356.691819 L282.302153,356.691819 C281.86333,356.691819 281.481751,356.834911 281.157403,357.1211 C280.833056,357.407289 280.661345,357.76025 280.642266,358.179994 L280.642266,371.773902 C280.661345,372.193645 280.785358,372.508449 281.014309,372.71832 C281.434053,373.099906 281.86333,373.290696 282.302153,373.290696 L282.645578,373.290696 L282.645578,373.576883 L276.807353,373.576883 L276.807353,373.290696 L277.150778,373.290696 Z M305.578256,353.028619 L305.578256,356.262538 L305.292068,356.262538 L305.292068,355.833256 C305.292068,355.451671 305.158516,355.122559 304.891406,354.84591 C304.624296,354.56926 304.290414,354.430938 303.889749,354.430938 L297.851193,354.430938 L297.851193,363.274132 L302.687762,363.274132 C303.069347,363.255053 303.39369,363.111961 303.660799,362.844851 C303.927909,362.577741 304.061462,362.253399 304.061462,361.871813 L304.061462,361.442532 L304.34765,361.442532 L304.34765,365.964295 L304.061462,365.964295 L304.061462,365.535014 C304.061462,365.153428 303.932679,364.829086 303.675109,364.561976 C303.417539,364.294866 303.097966,364.151774 302.716381,364.132695 L297.851193,364.132695 L297.851193,371.487714 C297.851193,371.983775 298.032443,372.408282 298.394949,372.761249 C298.757455,373.114215 299.186732,373.290696 299.682793,373.290696 L300.054837,373.290696 L300.054837,373.576883 L293.78733,373.576883 L293.78733,373.290696 L294.159374,373.290696 C294.655434,373.290696 295.079942,373.114215 295.432908,372.761249 C295.785874,372.408282 295.971895,371.983775 295.990974,371.487714 L295.990974,355.461213 C295.990974,355.00331 295.804954,354.616961 295.432908,354.302153 C295.060862,353.987345 294.636355,353.829944 294.159374,353.829944 L293.815949,353.829944 L293.78733,353.543756 L302.172624,353.543756 C302.764082,353.543756 303.407997,353.486519 304.10439,353.372044 C304.800783,353.257568 305.292067,353.143094 305.578256,353.028619 Z M326.660496,356.691819 L326.231214,356.691819 C325.716074,356.691819 325.324955,356.892148 325.057845,357.292813 C324.94337,357.464526 324.876593,357.664856 324.857514,357.893807 L324.857514,367.538326 C324.857514,369.52257 324.223138,371.091816 322.954367,372.246111 C321.685596,373.400407 319.944639,373.977546 317.731445,373.977546 C315.51825,373.977546 313.772524,373.405176 312.494213,372.26042 C311.215902,371.115665 310.576757,369.551188 310.576757,367.566945 L310.576757,357.922425 C310.576757,357.578999 310.443204,357.288044 310.176094,357.049553 C309.908984,356.811063 309.584642,356.691819 309.203056,356.691819 L308.773775,356.691819 L308.773775,356.405632 L314.211338,356.405632 L314.211338,356.691819 L313.782057,356.691819 C313.400472,356.691819 313.076129,356.811063 312.809019,357.049553 C312.54191,357.288044 312.408357,357.578999 312.408357,357.922425 L312.408357,367.22352 C312.408357,369.074209 312.880561,370.53375 313.824985,371.602189 C314.769409,372.670628 316.104937,373.204839 317.83161,373.204839 C319.558284,373.204839 320.94151,372.699246 321.981329,371.688045 C323.021149,370.676844 323.541051,369.293619 323.541051,367.538326 L323.541051,357.922425 C323.521972,357.559919 323.38365,357.264195 323.12608,357.035244 C322.86851,356.806293 322.548937,356.691819 322.167351,356.691819 L321.73807,356.691819 L321.73807,356.405632 L326.660496,356.405632 L326.660496,356.691819 Z M348.830248,356.691819 C348.410504,356.691819 348.048003,356.830142 347.742735,357.106791 C347.437467,357.38344 347.275296,357.722092 347.256216,358.122757 L347.256216,370.314345 C347.256216,371.420943 347.322993,372.470286 347.456548,373.462408 L347.513785,373.977546 L347.256216,373.977546 L332.374465,359.868501 L332.374465,371.80252 C332.374465,372.222264 332.527097,372.575225 332.832365,372.861414 C333.137633,373.147603 333.509673,373.290696 333.948496,373.290696 L334.435015,373.290696 L334.435015,373.576883 L329.026071,373.576883 L329.026071,373.290696 L329.51259,373.290696 C329.951413,373.290696 330.323453,373.147603 330.628721,372.861414 C330.933989,372.575225 331.086621,372.222264 331.086621,371.80252 L331.086621,359.553694 C331.086621,358.389859 331.019845,357.350055 330.88629,356.43425 L330.829052,355.97635 L331.143859,356.004969 L345.996991,369.999539 L345.996991,358.122757 C345.958833,357.722092 345.787122,357.38344 345.481854,357.106791 C345.176585,356.830142 344.814085,356.691819 344.394341,356.691819 L343.907822,356.691819 L343.907822,356.405632 L349.316767,356.405632 L349.316767,356.691819 L348.830248,356.691819 Z M371,364.991257 C371,367.643275 370.174834,369.737193 368.524478,371.273073 C366.874122,372.808954 364.637111,373.576883 361.81338,373.576883 L352.254717,373.576883 L352.254717,373.290696 L352.626761,373.290696 C353.084663,373.290696 353.466243,373.138064 353.771511,372.832795 C354.076779,372.527527 354.238951,372.165027 354.25803,371.745283 L354.25803,358.237232 C354.238951,357.779329 354.072009,357.407289 353.757202,357.1211 C353.442394,356.834911 353.056044,356.691819 352.598142,356.691819 L352.254717,356.691819 L352.254717,356.405632 L361.81338,356.405632 C363.683148,356.405632 365.309631,356.749053 366.692878,357.435907 C368.076124,358.12276 369.139777,359.114867 369.883869,360.412257 C370.62796,361.709647 371,363.235965 371,364.991257 Z M356.118249,357.264194 L356.118249,372.71832 L361.81338,372.71832 C364.007496,372.71832 365.743683,372.026708 367.021993,370.643461 C368.300304,369.260214 368.93945,367.376165 368.93945,364.991257 C368.93945,362.606349 368.300304,360.7223 367.021993,359.339054 C365.743683,357.955807 364.007496,357.264194 361.81338,357.264194 L356.118249,357.264194 Z" id="360x20-logo" fill="url(#linearGradient-1)"></path>
    </g>
</svg>