<?xml version="1.0" encoding="UTF-8"?>
<svg width="360px" height="21px" viewBox="0 0 360 21" version="1.1" xmlns="http://www.w3.org/2000/svg" xmlns:xlink="http://www.w3.org/1999/xlink">
    <!-- Generator: Sketch 48.2 (47327) - http://www.bohemiancoding.com/sketch -->
    <title>360x20-logo-white</title>
    <desc>Created with Sketch.</desc>
    <defs></defs>
    <g id="Artboard" stroke="none" stroke-width="1" fill="none" fill-rule="evenodd" transform="translate(-540.000000, -1927.000000)">
        <path d="M556.28407,1930.09083 C556.28407,1929.63292 556.121899,1929.23703 555.797551,1928.90315 C555.473204,1928.56926 555.091624,1928.39278 554.652801,1928.3737 L549.215238,1928.3737 L549.215238,1945.51633 C549.234318,1946.01239 549.420338,1946.43213 549.773304,1946.77556 C550.12627,1947.11898 550.550778,1947.2907 551.046838,1947.2907 L551.418882,1947.2907 L551.418882,1947.57688 L545.151375,1947.57688 L545.151375,1947.2907 L545.523419,1947.2907 C546.01948,1947.2907 546.443987,1947.11898 546.796954,1946.77556 C547.14992,1946.43213 547.33594,1946.02193 547.355019,1945.54495 L547.355019,1928.3737 L541.917456,1928.3737 C541.459554,1928.39278 541.073205,1928.56926 540.758397,1928.90315 C540.443589,1929.23703 540.286188,1929.63292 540.286188,1930.09083 L540.286188,1930.57734 L540,1930.60596 L540,1927 C540.286189,1927.11448 540.782242,1927.22895 541.488175,1927.34343 C542.194108,1927.4579 542.842793,1927.51514 543.43425,1927.51514 L553.107389,1927.51514 C554.042273,1927.51514 554.819741,1927.44359 555.439817,1927.3005 C556.059893,1927.1574 556.436703,1927.05724 556.570258,1927 L556.570258,1930.60596 L556.28407,1930.57734 L556.28407,1930.09083 Z M571.785653,1947.2907 C572.224476,1947.2907 572.606056,1947.14283 572.930403,1946.8471 C573.254751,1946.55138 573.426461,1946.19365 573.445541,1945.7739 L573.445541,1939.53501 L562.885221,1939.53501 L562.885221,1945.7739 C562.9043,1946.19365 563.076011,1946.55138 563.400359,1946.8471 C563.724706,1947.14283 564.106286,1947.2907 564.545109,1947.2907 L564.888534,1947.2907 L564.888534,1947.57688 L559.050308,1947.57688 L559.050308,1947.2907 L559.393733,1947.2907 C559.851636,1947.2907 560.237985,1947.13806 560.552793,1946.8328 C560.867601,1946.52753 561.034542,1946.16503 561.053621,1945.74528 L561.053621,1932.23723 C561.034542,1931.81749 560.862831,1931.45499 560.538483,1931.14972 C560.214136,1930.84445 559.832556,1930.69182 559.393733,1930.69182 L559.050308,1930.69182 L559.050308,1930.40563 L564.888534,1930.40563 L564.888534,1930.69182 L564.545109,1930.69182 C564.106286,1930.69182 563.724706,1930.83968 563.400359,1931.13541 C563.076011,1931.43114 562.9043,1931.78887 562.885221,1932.20861 L562.885221,1938.67645 L573.445541,1938.67645 L573.445541,1932.23723 C573.445541,1931.81749 573.321527,1931.49315 573.073497,1931.26419 C572.672832,1930.88261 572.243555,1930.69182 571.785653,1930.69182 L571.442228,1930.69182 L571.442228,1930.40563 L577.280454,1930.40563 L577.280454,1930.69182 L576.937029,1930.69182 C576.498205,1930.69182 576.116626,1930.83491 575.792278,1931.1211 C575.467931,1931.40729 575.29622,1931.76025 575.277141,1932.17999 L575.277141,1945.7739 C575.29622,1946.19365 575.420234,1946.50845 575.649185,1946.71832 C576.068928,1947.09991 576.498205,1947.2907 576.937029,1947.2907 L577.280454,1947.2907 L577.280454,1947.57688 L571.442228,1947.57688 L571.442228,1947.2907 L571.785653,1947.2907 Z M581.162823,1947.2907 C581.620725,1947.2907 582.007075,1947.14283 582.321882,1946.8471 C582.63669,1946.55138 582.803631,1946.19365 582.822711,1945.7739 L582.822711,1932.17999 C582.822711,1931.76025 582.660539,1931.40729 582.336192,1931.1211 C582.011844,1930.83491 581.620725,1930.69182 581.162823,1930.69182 L580.76216,1930.69182 L580.76216,1930.40563 L589.118836,1930.40563 C589.901086,1930.40563 590.587929,1930.34839 591.179386,1930.23392 C591.770844,1930.11944 592.152423,1930.02405 592.324136,1929.94773 L592.324136,1933.21027 L592.00933,1933.18165 L592.00933,1932.75237 C592.00933,1932.3517 591.875777,1932.00828 591.608668,1931.72209 C591.341558,1931.43591 590.998136,1931.29281 590.578393,1931.29281 L584.625692,1931.29281 L584.625692,1938.56198 L589.519499,1938.56198 C589.901084,1938.56198 590.192038,1938.4475 590.392371,1938.21855 C590.592703,1937.9896 590.692868,1937.70342 590.692868,1937.35999 L590.692868,1936.98794 L591.007674,1936.98794 L591.007674,1940.99457 L590.692868,1940.99457 L590.692868,1940.62253 C590.692868,1940.08831 590.492538,1939.72581 590.091874,1939.53501 C589.93924,1939.47778 589.777068,1939.43962 589.605355,1939.42054 L584.625692,1939.42054 L584.625692,1946.6897 L589.118836,1946.6897 C589.996482,1946.6897 590.735793,1946.53707 591.336789,1946.2318 C591.937786,1945.92653 592.395682,1945.56403 592.71049,1945.14429 C593.025297,1944.72455 593.34487,1944.17125 593.669218,1943.4844 L593.955405,1943.4844 L592.381374,1947.57688 L580.76216,1947.57688 L580.76216,1947.2907 L581.162823,1947.2907 Z M607.529751,1930.03359 C609.437677,1928.10658 611.917944,1927.14309 614.970627,1927.14309 C618.023309,1927.14309 620.503576,1928.10181 622.411502,1930.01928 C624.319429,1931.93674 625.273377,1934.4504 625.273377,1937.56032 C625.273377,1940.67024 624.319429,1943.18389 622.411502,1945.10136 C620.503576,1947.01883 618.023309,1947.97755 614.970627,1947.97755 C611.917944,1947.97755 609.442447,1947.01883 607.54406,1945.10136 C605.645673,1943.18389 604.696494,1940.67024 604.696494,1937.56032 C604.696494,1934.4504 605.640904,1931.94151 607.529751,1930.03359 Z M609.103782,1944.48606 C610.591965,1946.24135 612.55233,1947.11898 614.984936,1947.11898 C617.417542,1947.11898 619.373137,1946.24135 620.85178,1944.48606 C622.330423,1942.73077 623.069733,1940.42221 623.069733,1937.56032 C623.069733,1935.67147 622.735851,1934.00206 622.068077,1932.55204 C621.400303,1931.10201 620.451124,1929.98112 619.220511,1929.18933 C617.989899,1928.39755 616.573285,1928.00166 614.970627,1928.00166 C612.54756,1928.00166 610.596735,1928.87929 609.118092,1930.63458 C607.639449,1932.38987 606.900138,1934.69843 606.900138,1937.56032 C606.900138,1940.42221 607.634679,1942.73077 609.103782,1944.48606 Z M628.440278,1947.2907 C628.89818,1947.2907 629.28453,1947.14283 629.599337,1946.8471 C629.914145,1946.55138 630.081086,1946.19365 630.100166,1945.7739 L630.100166,1932.23723 C630.081086,1931.81749 629.904606,1931.45499 629.570719,1931.14972 C629.236832,1930.84445 628.840943,1930.69182 628.38304,1930.69182 L628.039615,1930.69182 L628.039615,1930.40563 L633.963697,1930.40563 L633.963697,1930.69182 L633.620272,1930.69182 C633.16237,1930.69182 632.766481,1930.84445 632.432594,1931.14972 C632.098707,1931.45499 631.931766,1931.81749 631.931766,1932.23723 L631.931766,1946.6897 L636.396291,1946.6897 C637.273937,1946.6897 638.018017,1946.53707 638.628554,1946.2318 C639.23909,1945.92653 639.701756,1945.56403 640.016563,1945.14429 C640.331371,1944.72455 640.641405,1944.17125 640.946673,1943.4844 L641.23286,1943.4844 L639.658829,1947.57688 L628.039615,1947.57688 L628.039615,1947.2907 L628.440278,1947.2907 Z M643.455342,1947.2907 C643.970482,1947.2907 644.418838,1947.13806 644.800423,1946.8328 C645.182009,1946.52753 645.372799,1946.16503 645.372799,1945.74528 L645.372799,1932.23723 C645.372799,1931.81749 645.182009,1931.45499 644.800423,1931.14972 C644.418838,1930.84445 643.960943,1930.69182 643.426723,1930.69182 L643.05468,1930.69182 L643.05468,1930.40563 L649.522518,1930.40563 L649.522518,1930.69182 L649.150474,1930.69182 C648.635334,1930.69182 648.191748,1930.83491 647.819702,1931.1211 C647.447656,1931.40729 647.242557,1931.76025 647.204399,1932.17999 L647.204399,1945.7739 C647.223478,1946.19365 647.423807,1946.55138 647.805392,1946.8471 C648.186978,1947.14283 648.635334,1947.2907 649.150474,1947.2907 L649.522518,1947.2907 L649.551136,1947.57688 L643.05468,1947.57688 L643.05468,1947.2907 L643.455342,1947.2907 Z M670.604757,1930.69182 L670.375807,1930.69182 C669.956063,1930.69182 669.545865,1930.83014 669.145201,1931.10679 C668.744536,1931.38344 668.401115,1931.79841 668.114926,1932.35171 C663.955646,1941.2808 661.790182,1945.95515 661.618469,1946.3749 C661.294122,1947.17622 661.122411,1947.71044 661.103331,1947.97755 L660.845763,1947.97755 L653.776931,1932.38033 C653.223632,1931.25465 652.489092,1930.69182 651.573287,1930.69182 L651.344337,1930.69182 L651.344337,1930.40563 L657.211181,1930.40563 L657.211181,1930.69182 L656.982231,1930.69182 C656.619725,1930.69182 656.34785,1930.8206 656.166597,1931.07817 C655.985344,1931.33574 655.894718,1931.56946 655.894718,1931.77933 C655.894718,1931.9892 655.923337,1932.20861 655.980575,1932.43756 L661.103331,1944.91534 L666.369182,1932.4948 C666.464578,1932.24677 666.512276,1932.01305 666.512276,1931.79364 C666.512276,1931.57423 666.416881,1931.33574 666.226088,1931.07817 C666.035296,1930.8206 665.749111,1930.69182 665.367526,1930.69182 L665.167194,1930.69182 L665.167194,1930.40563 L670.604757,1930.40563 L670.604757,1930.69182 Z M672.770002,1947.2907 C673.227904,1947.2907 673.614253,1947.14283 673.929061,1946.8471 C674.243869,1946.55138 674.41081,1946.19365 674.429889,1945.7739 L674.429889,1932.17999 C674.429889,1931.76025 674.267718,1931.40729 673.94337,1931.1211 C673.619023,1930.83491 673.227904,1930.69182 672.770002,1930.69182 L672.369339,1930.69182 L672.369339,1930.40563 L680.726015,1930.40563 C681.508265,1930.40563 682.195108,1930.34839 682.786565,1930.23392 C683.378022,1930.11944 683.759602,1930.02405 683.931315,1929.94773 L683.931315,1933.21027 L683.616509,1933.18165 L683.616509,1932.75237 C683.616509,1932.3517 683.482956,1932.00828 683.215846,1931.72209 C682.948736,1931.43591 682.605315,1931.29281 682.185571,1931.29281 L676.232871,1931.29281 L676.232871,1938.56198 L681.126677,1938.56198 C681.508263,1938.56198 681.799217,1938.4475 681.999549,1938.21855 C682.199881,1937.9896 682.300046,1937.70342 682.300046,1937.35999 L682.300046,1936.98794 L682.614852,1936.98794 L682.614852,1940.99457 L682.300046,1940.99457 L682.300046,1940.62253 C682.300046,1940.08831 682.099717,1939.72581 681.699052,1939.53501 C681.546418,1939.47778 681.384247,1939.43962 681.212534,1939.42054 L676.232871,1939.42054 L676.232871,1946.6897 L680.726015,1946.6897 C681.603661,1946.6897 682.342971,1946.53707 682.943968,1946.2318 C683.544965,1945.92653 684.00286,1945.56403 684.317668,1945.14429 C684.632476,1944.72455 684.952049,1944.17125 685.276396,1943.4844 L685.562584,1943.4844 L683.988552,1947.57688 L672.369339,1947.57688 L672.369339,1947.2907 L672.770002,1947.2907 Z M703.000461,1947.57688 L696.017485,1947.57688 L696.046104,1947.2907 L696.389529,1947.2907 C696.88559,1947.2907 697.310097,1947.11898 697.663064,1946.77556 C698.01603,1946.43213 698.20205,1946.01239 698.221129,1945.51633 L698.221129,1929.60431 C698.221129,1929.10825 698.039879,1928.68851 697.677373,1928.34508 C697.314867,1928.00165 696.88559,1927.82994 696.389529,1927.82994 L696.046104,1927.82994 L696.017485,1927.54376 L701.712617,1927.54376 C703.677781,1927.54376 705.2041,1927.9778 706.291618,1928.84591 C707.379136,1929.71402 707.922886,1930.87306 707.922886,1932.32309 C707.922886,1933.46784 707.617623,1934.41702 707.007086,1935.17065 C706.39655,1935.92428 705.65247,1936.42511 704.774824,1936.67314 C706.282086,1936.90209 707.474522,1937.52216 708.352168,1938.53336 C709.229814,1939.54456 709.66863,1940.81808 709.66863,1942.35396 C709.66863,1943.88984 709.081952,1945.14428 707.908577,1946.11733 C706.735202,1947.09037 705.09918,1947.57688 703.000461,1947.57688 Z M700.081348,1946.54661 L702.943224,1946.54661 C704.393248,1946.54661 705.518907,1946.15072 706.320236,1945.35893 C707.121565,1944.56714 707.522224,1943.44625 707.522224,1941.99623 C707.522224,1941.17582 707.383901,1940.45559 707.107252,1939.83551 C706.830603,1939.21543 706.482411,1938.72415 706.062668,1938.36164 C704.95607,1937.44584 703.296199,1936.98794 701.083005,1936.98794 L701.054386,1936.98794 L701.054386,1936.73038 L701.326264,1936.73038 C701.488438,1936.73038 701.722155,1936.7113 702.027423,1936.67314 C702.332692,1936.63498 702.676113,1936.5682 703.057699,1936.47281 C703.439284,1936.37741 703.782705,1936.22478 704.087974,1936.01491 C704.393242,1935.80504 704.679426,1935.55701 704.946536,1935.27082 C705.499835,1934.6412 705.77648,1933.70156 705.77648,1932.45187 C705.77648,1931.20218 705.418749,1930.22438 704.703277,1929.51845 C703.987804,1928.81252 702.95277,1928.45956 701.598142,1928.45956 L700.081348,1928.45956 L700.081348,1946.54661 Z M718.072763,1931.29281 L716.555969,1931.29281 L716.555969,1945.74528 C716.575048,1946.33674 716.842154,1946.7851 717.357294,1947.09036 C717.605324,1947.22392 717.881969,1947.2907 718.187238,1947.2907 L718.559281,1947.2907 L718.5879,1947.57688 L712.721056,1947.57688 L712.721056,1947.2907 L713.121718,1947.2907 C713.560542,1947.2907 713.937351,1947.14283 714.252159,1946.8471 C714.566967,1946.55138 714.724369,1946.19365 714.724369,1945.7739 L714.724369,1932.17999 C714.724369,1931.76025 714.566967,1931.40729 714.252159,1931.1211 C713.937351,1930.83491 713.560542,1930.69182 713.121718,1930.69182 L712.721056,1930.69182 L712.721056,1930.40563 L719.904363,1930.40563 C721.697814,1930.40563 723.114428,1930.81583 724.154248,1931.63624 C725.194067,1932.45665 725.71397,1933.53461 725.71397,1934.87016 C725.71397,1936.20571 725.294232,1937.32183 724.454744,1938.21855 C723.615257,1939.11528 722.546834,1939.63041 721.249444,1939.76396 C721.859981,1940.03107 722.594521,1940.77515 723.453088,1941.99623 C723.434009,1941.99623 723.763121,1942.41596 724.440435,1943.25545 C725.117749,1944.09494 725.6615,1944.74839 726.071704,1945.21584 C726.481908,1945.68328 726.82056,1946.04101 727.08767,1946.28904 C727.793602,1946.95681 728.604459,1947.2907 729.520264,1947.2907 L729.520264,1947.57688 L728.633082,1947.57688 C727.12582,1947.57688 725.942924,1947.28116 725.084357,1946.6897 C724.435662,1946.25088 723.844214,1945.70713 723.309994,1945.05843 C723.195519,1944.9058 722.713775,1944.23326 721.864747,1943.04081 C721.01572,1941.84836 720.562594,1941.21398 720.505357,1941.13766 C719.475076,1939.85935 718.511588,1939.22021 717.614863,1939.22021 L717.614863,1938.93402 C719.847136,1938.93402 721.192204,1938.81955 721.650107,1938.59059 C722.279722,1938.26625 722.708999,1937.92283 722.937951,1937.56032 C723.414932,1936.79715 723.653419,1935.95767 723.653419,1935.04187 C723.653419,1933.87803 723.309998,1932.98132 722.623144,1932.35171 C721.936291,1931.72209 721.01096,1931.37867 719.847125,1931.32143 C719.331985,1931.30235 718.740537,1931.29281 718.072763,1931.29281 Z M748.341622,1947.2907 L748.570572,1947.2907 L748.570572,1947.57688 L742.703728,1947.57688 L742.703728,1947.2907 L742.932678,1947.2907 C743.295184,1947.2907 743.571829,1947.16668 743.762621,1946.91865 C743.953414,1946.67062 744.048809,1946.4369 744.048809,1946.21749 C744.048809,1945.99808 744.010651,1945.78344 743.934334,1945.57357 L742.360303,1941.76728 L735.119758,1941.76728 L733.545727,1945.48771 C733.45033,1945.73574 733.402633,1945.96946 733.402633,1946.18887 C733.402633,1946.40829 733.498028,1946.64677 733.688821,1946.90434 C733.879613,1947.16191 734.165798,1947.2907 734.547383,1947.2907 L734.776333,1947.2907 L734.776333,1947.57688 L729.310151,1947.57688 L729.310151,1947.2907 L729.539101,1947.2907 C729.939766,1947.2907 730.345194,1947.15237 730.755398,1946.87572 C731.165603,1946.59907 731.504254,1946.18411 731.771364,1945.63081 C735.949723,1936.70171 738.124726,1932.02736 738.29644,1931.60762 C738.620787,1930.80629 738.792498,1930.27208 738.811577,1930.00497 L739.069146,1930.00497 L746.137978,1945.63081 C746.691277,1946.73741 747.425817,1947.2907 748.341622,1947.2907 Z M735.491802,1940.90871 L742.016878,1940.90871 L738.811577,1933.06718 L735.491802,1940.90871 Z M769.595574,1930.69182 C769.17583,1930.69182 768.81333,1930.83014 768.508061,1931.10679 C768.202793,1931.38344 768.040622,1931.72209 768.021543,1932.12276 L768.021543,1944.31435 C768.021543,1945.42094 768.088319,1946.47029 768.221874,1947.46241 L768.279111,1947.97755 L768.021543,1947.97755 L753.139791,1933.8685 L753.139791,1945.80252 C753.139791,1946.22226 753.292423,1946.57523 753.597691,1946.86141 C753.90296,1947.1476 754.275,1947.2907 754.713823,1947.2907 L755.200341,1947.2907 L755.200341,1947.57688 L749.791397,1947.57688 L749.791397,1947.2907 L750.277916,1947.2907 C750.716739,1947.2907 751.088779,1947.1476 751.394047,1946.86141 C751.699316,1946.57523 751.851947,1946.22226 751.851947,1945.80252 L751.851947,1933.55369 C751.851947,1932.38986 751.785171,1931.35005 751.651616,1930.43425 L751.594379,1929.97635 L751.909185,1930.00497 L766.762317,1943.99954 L766.762317,1932.12276 C766.724159,1931.72209 766.552448,1931.38344 766.24718,1931.10679 C765.941912,1930.83014 765.579411,1930.69182 765.159667,1930.69182 L764.673149,1930.69182 L764.673149,1930.40563 L770.082093,1930.40563 L770.082093,1930.69182 L769.595574,1930.69182 Z M782.178044,1947.97755 C779.258917,1947.95847 776.95513,1947.14761 775.266615,1945.54495 C773.578101,1943.94229 772.733856,1941.75298 772.733856,1938.97695 C772.733856,1936.20092 773.578101,1934.0116 775.266615,1932.40894 C776.95513,1930.80629 779.258917,1930.00497 782.178044,1930.00497 C783.360958,1930.00497 784.553395,1930.1576 785.755388,1930.46287 C786.957382,1930.76814 787.997186,1931.18787 788.874832,1931.72209 L789.504445,1935.78596 L789.246876,1935.78596 C788.426468,1932.50432 786.060674,1930.86353 782.149425,1930.86353 C779.878993,1930.86353 778.085569,1931.58853 776.7691,1933.03856 C775.452631,1934.48858 774.794406,1936.47279 774.794406,1938.99126 C774.794406,1940.63207 775.09013,1942.05823 775.681587,1943.26976 C776.273044,1944.48129 777.131598,1945.42093 778.257275,1946.08871 C779.382952,1946.75648 780.689862,1947.09036 782.178044,1947.09036 C783.666227,1947.09036 784.968367,1946.86619 786.084504,1946.41782 C787.200641,1945.96946 788.125971,1945.23015 788.860523,1944.19987 C789.595075,1943.16959 790.010042,1941.8913 790.105439,1940.36496 L790.363007,1940.36496 L790.048201,1944.28573 C789.30411,1945.43048 788.226148,1946.33196 786.814282,1946.9902 C785.402417,1947.64843 783.857019,1947.97755 782.178044,1947.97755 Z M806.150778,1947.2907 C806.589601,1947.2907 806.97118,1947.14283 807.295528,1946.8471 C807.619875,1946.55138 807.791586,1946.19365 807.810665,1945.7739 L807.810665,1939.53501 L797.250346,1939.53501 L797.250346,1945.7739 C797.269425,1946.19365 797.441136,1946.55138 797.765483,1946.8471 C798.089831,1947.14283 798.47141,1947.2907 798.910233,1947.2907 L799.253658,1947.2907 L799.253658,1947.57688 L793.415433,1947.57688 L793.415433,1947.2907 L793.758858,1947.2907 C794.21676,1947.2907 794.60311,1947.13806 794.917917,1946.8328 C795.232725,1946.52753 795.399666,1946.16503 795.418746,1945.74528 L795.418746,1932.23723 C795.399666,1931.81749 795.227956,1931.45499 794.903608,1931.14972 C794.579261,1930.84445 794.197681,1930.69182 793.758858,1930.69182 L793.415433,1930.69182 L793.415433,1930.40563 L799.253658,1930.40563 L799.253658,1930.69182 L798.910233,1930.69182 C798.47141,1930.69182 798.089831,1930.83968 797.765483,1931.13541 C797.441136,1931.43114 797.269425,1931.78887 797.250346,1932.20861 L797.250346,1938.67645 L807.810665,1938.67645 L807.810665,1932.23723 C807.810665,1931.81749 807.686652,1931.49315 807.438622,1931.26419 C807.037957,1930.88261 806.60868,1930.69182 806.150778,1930.69182 L805.807353,1930.69182 L805.807353,1930.40563 L811.645578,1930.40563 L811.645578,1930.69182 L811.302153,1930.69182 C810.86333,1930.69182 810.481751,1930.83491 810.157403,1931.1211 C809.833056,1931.40729 809.661345,1931.76025 809.642266,1932.17999 L809.642266,1945.7739 C809.661345,1946.19365 809.785358,1946.50845 810.014309,1946.71832 C810.434053,1947.09991 810.86333,1947.2907 811.302153,1947.2907 L811.645578,1947.2907 L811.645578,1947.57688 L805.807353,1947.57688 L805.807353,1947.2907 L806.150778,1947.2907 Z M834.578256,1927.02862 L834.578256,1930.26254 L834.292068,1930.26254 L834.292068,1929.83326 C834.292068,1929.45167 834.158516,1929.12256 833.891406,1928.84591 C833.624296,1928.56926 833.290414,1928.43094 832.889749,1928.43094 L826.851193,1928.43094 L826.851193,1937.27413 L831.687762,1937.27413 C832.069347,1937.25505 832.39369,1937.11196 832.660799,1936.84485 C832.927909,1936.57774 833.061462,1936.2534 833.061462,1935.87181 L833.061462,1935.44253 L833.34765,1935.44253 L833.34765,1939.96429 L833.061462,1939.96429 L833.061462,1939.53501 C833.061462,1939.15343 832.932679,1938.82909 832.675109,1938.56198 C832.417539,1938.29487 832.097966,1938.15177 831.716381,1938.13269 L826.851193,1938.13269 L826.851193,1945.48771 C826.851193,1945.98377 827.032443,1946.40828 827.394949,1946.76125 C827.757455,1947.11421 828.186732,1947.2907 828.682793,1947.2907 L829.054837,1947.2907 L829.054837,1947.57688 L822.78733,1947.57688 L822.78733,1947.2907 L823.159374,1947.2907 C823.655434,1947.2907 824.079942,1947.11421 824.432908,1946.76125 C824.785874,1946.40828 824.971895,1945.98377 824.990974,1945.48771 L824.990974,1929.46121 C824.990974,1929.00331 824.804954,1928.61696 824.432908,1928.30215 C824.060862,1927.98735 823.636355,1927.82994 823.159374,1927.82994 L822.815949,1927.82994 L822.78733,1927.54376 L831.172624,1927.54376 C831.764082,1927.54376 832.407997,1927.48652 833.10439,1927.37204 C833.800783,1927.25757 834.292067,1927.14309 834.578256,1927.02862 Z M855.660496,1930.69182 L855.231214,1930.69182 C854.716074,1930.69182 854.324955,1930.89215 854.057845,1931.29281 C853.94337,1931.46453 853.876593,1931.66486 853.857514,1931.89381 L853.857514,1941.53833 C853.857514,1943.52257 853.223138,1945.09182 851.954367,1946.24611 C850.685596,1947.40041 848.944639,1947.97755 846.731445,1947.97755 C844.51825,1947.97755 842.772524,1947.40518 841.494213,1946.26042 C840.215902,1945.11566 839.576757,1943.55119 839.576757,1941.56695 L839.576757,1931.92243 C839.576757,1931.579 839.443204,1931.28804 839.176094,1931.04955 C838.908984,1930.81106 838.584642,1930.69182 838.203056,1930.69182 L837.773775,1930.69182 L837.773775,1930.40563 L843.211338,1930.40563 L843.211338,1930.69182 L842.782057,1930.69182 C842.400472,1930.69182 842.076129,1930.81106 841.809019,1931.04955 C841.54191,1931.28804 841.408357,1931.579 841.408357,1931.92243 L841.408357,1941.22352 C841.408357,1943.07421 841.880561,1944.53375 842.824985,1945.60219 C843.769409,1946.67063 845.104937,1947.20484 846.83161,1947.20484 C848.558284,1947.20484 849.94151,1946.69925 850.981329,1945.68805 C852.021149,1944.67684 852.541051,1943.29362 852.541051,1941.53833 L852.541051,1931.92243 C852.521972,1931.55992 852.38365,1931.2642 852.12608,1931.03524 C851.86851,1930.80629 851.548937,1930.69182 851.167351,1930.69182 L850.73807,1930.69182 L850.73807,1930.40563 L855.660496,1930.40563 L855.660496,1930.69182 Z M877.830248,1930.69182 C877.410504,1930.69182 877.048003,1930.83014 876.742735,1931.10679 C876.437467,1931.38344 876.275296,1931.72209 876.256216,1932.12276 L876.256216,1944.31435 C876.256216,1945.42094 876.322993,1946.47029 876.456548,1947.46241 L876.513785,1947.97755 L876.256216,1947.97755 L861.374465,1933.8685 L861.374465,1945.80252 C861.374465,1946.22226 861.527097,1946.57523 861.832365,1946.86141 C862.137633,1947.1476 862.509673,1947.2907 862.948496,1947.2907 L863.435015,1947.2907 L863.435015,1947.57688 L858.026071,1947.57688 L858.026071,1947.2907 L858.51259,1947.2907 C858.951413,1947.2907 859.323453,1947.1476 859.628721,1946.86141 C859.933989,1946.57523 860.086621,1946.22226 860.086621,1945.80252 L860.086621,1933.55369 C860.086621,1932.38986 860.019845,1931.35005 859.88629,1930.43425 L859.829052,1929.97635 L860.143859,1930.00497 L874.996991,1943.99954 L874.996991,1932.12276 C874.958833,1931.72209 874.787122,1931.38344 874.481854,1931.10679 C874.176585,1930.83014 873.814085,1930.69182 873.394341,1930.69182 L872.907822,1930.69182 L872.907822,1930.40563 L878.316767,1930.40563 L878.316767,1930.69182 L877.830248,1930.69182 Z M900,1938.99126 C900,1941.64327 899.174834,1943.73719 897.524478,1945.27307 C895.874122,1946.80895 893.637111,1947.57688 890.81338,1947.57688 L881.254717,1947.57688 L881.254717,1947.2907 L881.626761,1947.2907 C882.084663,1947.2907 882.466243,1947.13806 882.771511,1946.8328 C883.076779,1946.52753 883.238951,1946.16503 883.25803,1945.74528 L883.25803,1932.23723 C883.238951,1931.77933 883.072009,1931.40729 882.757202,1931.1211 C882.442394,1930.83491 882.056044,1930.69182 881.598142,1930.69182 L881.254717,1930.69182 L881.254717,1930.40563 L890.81338,1930.40563 C892.683148,1930.40563 894.309631,1930.74905 895.692878,1931.43591 C897.076124,1932.12276 898.139777,1933.11487 898.883869,1934.41226 C899.62796,1935.70965 900,1937.23597 900,1938.99126 Z M885.118249,1931.26419 L885.118249,1946.71832 L890.81338,1946.71832 C893.007496,1946.71832 894.743683,1946.02671 896.021993,1944.64346 C897.300304,1943.26021 897.93945,1941.37617 897.93945,1938.99126 C897.93945,1936.60635 897.300304,1934.7223 896.021993,1933.33905 C894.743683,1931.95581 893.007496,1931.26419 890.81338,1931.26419 L885.118249,1931.26419 Z" id="360x20-logo-white" fill="#FFFFFF"></path>
    </g>
</svg>